<?xml version="1.0" standalone="no"?>
<!DOCTYPE svg PUBLIC "-//W3C//DTD SVG 20010904//EN"
 "http://www.w3.org/TR/2001/REC-SVG-20010904/DTD/svg10.dtd">
<svg version="1.0" xmlns="http://www.w3.org/2000/svg"
 width="244.000000pt" height="244.000000pt" viewBox="0 0 244.000000 244.000000"
 preserveAspectRatio="xMidYMid meet">
<metadata>
Created by potrace 1.14, written by Peter Selinger 2001-2017
</metadata>
<g transform="translate(0.000000,244.000000) scale(0.100000,-0.100000)"
fill="#000000" stroke="none">
<path d="M1096 2273 c-2 -2 -16 -6 -32 -9 -38 -8 -45 -10 -69 -18 -11 -5 -32
-12 -47 -18 -15 -6 -29 -8 -31 -7 -2 2 -11 -4 -21 -14 -10 -9 -22 -14 -28 -11
-6 4 -8 3 -5 -3 6 -10 -40 -38 -55 -35 -5 1 -7 -1 -5 -6 1 -4 -1 -8 -5 -10
-15 -5 -98 -93 -98 -103 0 -6 -4 -7 -10 -4 -5 3 -10 0 -10 -8 0 -8 -7 -18 -16
-21 -8 -3 -12 -10 -9 -16 3 -5 2 -10 -3 -10 -16 0 -72 -129 -91 -208 -21 -89
-20 -297 2 -318 4 -4 7 -13 7 -21 0 -17 59 -143 79 -165 8 -10 11 -18 8 -18
-4 0 5 -16 18 -36 14 -20 22 -41 18 -47 -3 -6 -1 -7 5 -3 7 4 12 3 12 -2 0 -5
11 -26 25 -46 14 -21 20 -34 13 -30 -7 4 2 -8 20 -26 17 -19 33 -37 33 -42 1
-4 2 -11 3 -16 0 -4 11 -18 23 -32 22 -23 27 -35 24 -53 -1 -5 3 -6 9 -2 5 3
10 1 10 -4 0 -19 3 -25 22 -45 10 -11 24 -32 30 -48 7 -15 16 -28 19 -28 4 0
9 -8 13 -17 3 -10 19 -40 36 -68 32 -54 47 -85 48 -99 0 -5 4 -12 9 -15 11 -7
83 -166 88 -194 3 -10 10 -26 17 -35 7 -8 12 -18 12 -21 -1 -3 0 -10 1 -16 42
-142 68 -182 73 -112 2 17 7 34 12 35 6 2 8 7 5 12 -3 5 0 21 7 37 6 15 11 31
10 36 -1 4 2 7 8 7 5 0 7 6 4 14 -3 7 2 21 11 29 9 9 15 19 15 22 -4 16 13 65
21 65 6 0 7 4 4 10 -3 6 -1 10 5 10 6 0 9 4 5 9 -3 5 2 17 11 25 8 9 13 16 10
16 -6 0 43 101 53 110 4 3 7 10 8 17 4 20 105 187 122 201 13 11 13 12 1 6 -8
-5 1 12 20 36 19 24 35 47 35 51 0 4 9 18 20 31 11 14 21 30 23 37 4 18 44 71
54 71 5 0 7 4 4 9 -3 5 1 14 9 21 8 7 12 16 9 21 -3 5 2 12 10 15 9 3 14 10
11 14 -3 4 2 13 10 20 8 7 15 21 15 31 0 10 5 21 12 25 7 5 9 2 4 -7 -4 -8 -1
-6 7 3 7 10 26 22 41 28 27 10 27 10 21 -28 -5 -31 -4 -34 5 -19 10 16 16 34
19 58 1 3 12 11 26 17 33 15 33 35 0 22 -48 -18 -80 8 -59 48 7 14 11 29 8 34
-3 4 0 8 5 8 6 0 10 3 9 8 -1 4 4 32 10 62 20 91 17 215 -7 298 -5 17 -7 32
-3 32 4 0 3 4 -3 8 -11 7 -36 69 -38 89 0 7 -4 10 -9 7 -4 -3 -8 0 -8 6 0 7
-9 24 -20 40 -11 15 -16 31 -12 35 4 5 2 5 -4 2 -7 -4 -18 6 -26 24 -9 17 -18
30 -22 29 -12 -1 -55 48 -48 55 4 4 0 5 -8 3 -8 -2 -14 3 -12 10 1 8 -1 11 -6
8 -5 -3 -18 4 -30 14 -12 11 -26 20 -32 20 -5 0 -10 5 -10 11 0 5 -4 8 -9 5
-5 -3 -14 1 -21 9 -7 8 -19 15 -26 15 -8 0 -14 5 -14 10 0 5 -3 9 -7 8 -14 -3
-73 13 -73 21 0 4 -8 7 -17 8 -31 3 -68 10 -68 13 0 5 -244 8 -249 3z m195
-415 c22 -6 57 -27 79 -46 131 -112 106 -318 -49 -396 -43 -22 -49 -23 -75 -9
-56 29 -94 26 -63 -6 10 -11 7 -12 -13 -6 -48 13 -80 27 -80 37 0 5 -4 7 -8 4
-18 -11 -86 84 -98 137 -12 51 -3 114 24 167 53 104 168 153 283 118z m554
-537 c3 -6 -3 -15 -14 -20 -28 -16 -33 -14 -21 9 12 22 25 26 35 11z"/>
<path d="M2015 1640 c-3 -5 -1 -10 4 -10 6 0 11 5 11 10 0 6 -2 10 -4 10 -3 0
-8 -4 -11 -10z"/>
<path d="M2055 1640 c-3 -5 -1 -10 4 -10 6 0 11 5 11 10 0 6 -2 10 -4 10 -3 0
-8 -4 -11 -10z"/>
<path d="M2200 1640 c0 -5 5 -10 11 -10 5 0 7 5 4 10 -3 6 -8 10 -11 10 -2 0
-4 -4 -4 -10z"/>
<path d="M2270 1630 c0 -5 5 -10 11 -10 5 0 7 5 4 10 -3 6 -8 10 -11 10 -2 0
-4 -4 -4 -10z"/>
<path d="M2310 1569 c0 -5 5 -7 10 -4 6 3 10 8 10 11 0 2 -4 4 -10 4 -5 0 -10
-5 -10 -11z"/>
<path d="M2286 1541 c-17 -6 -17 -8 -4 -14 10 -3 19 0 22 9 3 8 4 14 3 13 -1
0 -11 -4 -21 -8z"/>
<path d="M2237 1488 c9 -10 18 -18 21 -18 3 0 2 3 -1 7 -4 3 -2 12 3 19 8 9 5
12 -14 10 -23 -1 -23 -2 -9 -18z"/>
<path d="M2170 1458 c0 -14 -61 -39 -81 -33 -20 7 -20 6 -5 -17 9 -14 13 -28
9 -33 -5 -4 -2 -5 5 -1 6 4 12 13 12 21 0 17 61 49 69 36 4 -5 11 1 17 14 10
20 9 23 -7 22 -11 -1 -19 -5 -19 -9z"/>
<path d="M2050 1388 c0 -4 4 -8 9 -8 6 0 12 4 15 8 3 5 -1 9 -9 9 -8 0 -15 -4
-15 -9z"/>
<path d="M1970 1380 c0 -6 6 -10 13 -10 6 -1 -1 -8 -16 -16 -16 -9 -27 -18
-24 -21 3 -2 15 0 26 7 18 9 21 8 22 -12 0 -23 0 -23 12 2 6 14 17 29 24 33 7
4 13 13 13 19 0 9 -3 9 -11 1 -8 -8 -20 -8 -35 -3 -15 6 -24 6 -24 0z"/>
<path d="M370 1180 c-9 -6 -10 -10 -3 -10 6 0 15 5 18 10 8 12 4 12 -15 0z"/>
<path d="M335 1160 c-3 -5 -1 -10 4 -10 6 0 11 5 11 10 0 6 -2 10 -4 10 -3 0
-8 -4 -11 -10z"/>
<path d="M295 1140 c-3 -5 -1 -10 4 -10 6 0 11 5 11 10 0 6 -2 10 -4 10 -3 0
-8 -4 -11 -10z"/>
<path d="M225 1100 c-16 -11 -25 -20 -20 -20 10 0 64 39 55 40 -3 0 -18 -9
-35 -20z"/>
<path d="M170 1059 c0 -5 5 -7 10 -4 6 3 10 8 10 11 0 2 -4 4 -10 4 -5 0 -10
-5 -10 -11z"/>
<path d="M145 1040 c-3 -5 -1 -10 4 -10 6 0 11 5 11 10 0 6 -2 10 -4 10 -3 0
-8 -4 -11 -10z"/>
<path d="M760 1005 c12 -15 4 -20 -22 -16 -5 0 -8 -4 -8 -10 0 -6 9 -8 21 -4
19 6 21 4 16 -16 l-6 -24 20 24 c18 22 18 25 3 42 -20 22 -42 26 -24 4z"/>
<path d="M664 962 c-2 -35 -1 -36 15 -16 9 12 23 23 31 27 11 4 9 6 -5 6 -12
1 -25 5 -30 10 -6 6 -10 -4 -11 -27z"/>
<path d="M110 979 c0 -5 5 -7 10 -4 6 3 10 8 10 11 0 2 -4 4 -10 4 -5 0 -10
-5 -10 -11z"/>
<path d="M583 973 c9 -14 -34 -29 -58 -19 -9 3 -15 0 -15 -10 0 -11 6 -14 23
-9 12 4 30 9 41 12 13 4 16 1 11 -7 -4 -7 3 -5 16 3 13 9 27 15 31 14 3 -1 10
1 14 5 3 4 -4 5 -16 3 -13 -3 -30 1 -39 8 -12 9 -13 9 -8 0z"/>
<path d="M130 949 c0 -5 5 -7 10 -4 6 3 10 8 10 11 0 2 -4 4 -10 4 -5 0 -10
-5 -10 -11z"/>
<path d="M452 941 c2 -7 7 -12 11 -12 12 1 9 15 -3 20 -7 2 -11 -2 -8 -8z"/>
<path d="M168 933 c7 -3 16 -2 19 1 4 3 -2 6 -13 5 -11 0 -14 -3 -6 -6z"/>
<path d="M215 930 c3 -5 8 -10 11 -10 2 0 4 5 4 10 0 6 -5 10 -11 10 -5 0 -7
-4 -4 -10z"/>
<path d="M334 928 c-4 -6 -3 -8 4 -4 5 3 12 1 14 -6 3 -8 6 -9 11 -1 4 6 0 13
-8 17 -8 3 -17 0 -21 -6z"/>
<path d="M390 936 c0 -9 30 -14 35 -6 4 6 -3 10 -14 10 -12 0 -21 -2 -21 -4z"/>
<path d="M250 920 c0 -5 7 -7 15 -4 8 4 15 8 15 10 0 2 -7 4 -15 4 -8 0 -15
-4 -15 -10z"/>
<path d="M295 920 c4 -6 11 -8 16 -5 14 9 11 15 -7 15 -8 0 -12 -5 -9 -10z"/>
</g>
</svg>
